<?xml version="1.0" standalone="no"?>
<svg xmlns:xlink="http://www.w3.org/1999/xlink" id="wave" style="transform:rotate(0deg); transition: 0.3s" viewBox="0 0 1440 100" version="1.1" xmlns="http://www.w3.org/2000/svg"><defs><linearGradient id="sw-gradient-0" x1="0" x2="0" y1="1" y2="0"><stop stop-color="rgba(255, 0, 0, 1)" offset="0%"/><stop stop-color="rgba(0, 0, 0, 1)" offset="100%"/></linearGradient></defs><path style="transform:translate(0, 0px); opacity:1" fill="url(#sw-gradient-0)" d="M0,60L60,56.7C120,53,240,47,360,50C480,53,600,67,720,70C840,73,960,67,1080,56.7C1200,47,1320,33,1440,26.7C1560,20,1680,20,1800,16.7C1920,13,2040,7,2160,15C2280,23,2400,47,2520,53.3C2640,60,2760,50,2880,38.3C3000,27,3120,13,3240,13.3C3360,13,3480,27,3600,36.7C3720,47,3840,53,3960,48.3C4080,43,4200,27,4320,16.7C4440,7,4560,3,4680,5C4800,7,4920,13,5040,23.3C5160,33,5280,47,5400,50C5520,53,5640,47,5760,51.7C5880,57,6000,73,6120,71.7C6240,70,6360,50,6480,45C6600,40,6720,50,6840,60C6960,70,7080,80,7200,78.3C7320,77,7440,63,7560,53.3C7680,43,7800,37,7920,30C8040,23,8160,17,8280,15C8400,13,8520,17,8580,18.3L8640,20L8640,100L8580,100C8520,100,8400,100,8280,100C8160,100,8040,100,7920,100C7800,100,7680,100,7560,100C7440,100,7320,100,7200,100C7080,100,6960,100,6840,100C6720,100,6600,100,6480,100C6360,100,6240,100,6120,100C6000,100,5880,100,5760,100C5640,100,5520,100,5400,100C5280,100,5160,100,5040,100C4920,100,4800,100,4680,100C4560,100,4440,100,4320,100C4200,100,4080,100,3960,100C3840,100,3720,100,3600,100C3480,100,3360,100,3240,100C3120,100,3000,100,2880,100C2760,100,2640,100,2520,100C2400,100,2280,100,2160,100C2040,100,1920,100,1800,100C1680,100,1560,100,1440,100C1320,100,1200,100,1080,100C960,100,840,100,720,100C600,100,480,100,360,100C240,100,120,100,60,100L0,100Z"/></svg>